<?xml version="1.0" standalone="no"?>
<!DOCTYPE svg PUBLIC "-//W3C//DTD SVG 20010904//EN"
 "http://www.w3.org/TR/2001/REC-SVG-20010904/DTD/svg10.dtd">
<svg version="1.0" xmlns="http://www.w3.org/2000/svg"
 width="2732.000000pt" height="2048.000000pt" viewBox="0 0 2732.000000 2048.000000"
 preserveAspectRatio="xMidYMid meet">

<g transform="translate(0.000000,2048.000000) scale(0.100000,-0.100000)"
fill="#000000" stroke="none">
<path d="M11189 16441 c-90 -29 -156 -71 -224 -142 -69 -74 -113 -155 -140
-259 -26 -99 -16 -279 20 -383 48 -138 154 -274 269 -346 l50 -31 -60 0 c-131
-1 -286 -55 -393 -138 -134 -104 -214 -248 -228 -409 -3 -40 -9 -73 -13 -73
-3 0 -67 16 -141 35 -215 56 -406 79 -664 79 -235 0 -345 -12 -535 -59 -1127
-281 -1706 -1465 -1445 -2955 136 -776 490 -1576 1004 -2267 42 -57 83 -105
92 -108 19 -6 216 66 374 137 514 230 1050 644 1436 1108 227 273 348 456 500
753 293 576 391 1186 269 1669 -85 331 -282 618 -545 793 -262 174 -552 255
-912 255 -222 0 -513 -37 -513 -66 0 -24 17 -24 137 -2 100 18 156 22 363 22
229 0 253 -1 371 -27 313 -66 552 -194 742 -397 176 -187 286 -413 344 -705
25 -126 25 -506 0 -650 -115 -661 -458 -1296 -1002 -1854 -425 -435 -918 -764
-1435 -957 l-115 -43 -17 22 c-10 12 -65 87 -122 167 -509 712 -844 1523 -955
2312 -75 534 -39 1024 110 1472 258 780 858 1263 1662 1337 247 23 564 -7 855
-81 85 -22 156 -40 157 -40 2 0 8 -21 14 -46 45 -178 224 -349 416 -397 136
-34 267 -30 393 12 l57 20 111 -73 c171 -113 262 -184 295 -229 73 -101 150
-167 235 -202 92 -38 347 -289 607 -600 448 -535 794 -1153 1022 -1822 2 -7
14 -13 25 -13 11 0 23 6 25 13 228 669 574 1287 1022 1822 260 311 515 562
607 600 85 35 162 101 235 202 33 45 124 116 295 229 l111 73 57 -20 c126 -42
257 -46 393 -12 192 48 371 219 416 397 6 25 12 46 14 46 1 0 72 18 157 40
589 150 1119 109 1575 -120 363 -183 638 -468 829 -856 235 -481 315 -1101
223 -1753 -110 -788 -446 -1599 -955 -2311 -57 -80 -112 -155 -122 -167 l-17
-22 -115 43 c-1031 384 -1962 1323 -2313 2333 -51 145 -97 325 -124 478 -25
144 -25 524 0 650 58 292 168 518 344 705 190 203 429 331 742 397 118 26 142
27 371 27 207 0 263 -4 363 -22 120 -22 137 -22 137 2 0 29 -291 66 -513 66
-818 0 -1383 -467 -1492 -1233 -19 -134 -19 -386 0 -534 48 -367 169 -708 403
-1138 39 -73 181 -285 260 -390 414 -548 998 -1024 1577 -1283 158 -71 355
-143 374 -137 19 6 133 158 256 340 415 617 717 1342 835 2005 111 626 84
1175 -80 1673 -227 684 -710 1150 -1360 1312 -190 47 -300 59 -535 59 -258 0
-449 -23 -664 -79 -74 -19 -138 -35 -141 -35 -4 0 -10 33 -13 73 -14 161 -94
305 -228 409 -107 83 -262 137 -393 138 l-60 0 50 31 c115 72 221 208 269 346
36 104 46 284 20 383 -27 104 -71 185 -141 259 -102 109 -222 161 -368 161
-160 0 -280 -53 -402 -174 -68 -68 -89 -97 -127 -176 -49 -104 -66 -163 -76
-271 l-6 -71 -47 60 c-144 186 -406 312 -648 312 -185 0 -325 -55 -446 -175
-114 -113 -164 -235 -164 -402 0 -167 60 -325 180 -470 72 -87 169 -161 285
-218 115 -56 193 -76 330 -84 l109 -6 -114 -81 c-360 -254 -740 -625 -1088
-1061 -58 -73 -109 -133 -112 -133 -3 0 -54 60 -112 133 -348 436 -728 807
-1088 1061 l-114 81 109 6 c137 8 215 28 330 84 172 84 298 205 384 366 102
190 109 415 19 593 -39 78 -153 191 -235 234 -297 156 -732 48 -960 -238 l-48
-60 -6 70 c-10 108 -27 167 -76 270 -79 165 -227 291 -393 335 -76 20 -212 18
-281 -4z m276 -36 c301 -79 507 -461 410 -760 l-16 -50 -69 -1 c-83 -1 -170
-39 -248 -109 -48 -43 -122 -148 -142 -199 -8 -22 -12 -23 -60 -15 -128 20
-227 75 -325 180 -166 178 -213 459 -115 681 57 130 192 248 317 277 61 14
184 12 248 -4z m4700 -18 c194 -90 305 -273 305 -503 0 -169 -57 -317 -165
-433 -98 -105 -197 -160 -325 -180 -49 -8 -52 -7 -61 17 -19 49 -100 161 -146
202 -76 66 -162 103 -243 104 l-69 1 -16 50 c-69 216 21 497 209 653 111 92
204 123 351 119 84 -3 111 -8 160 -30z m-3360 -307 c248 -63 405 -263 405
-515 -1 -306 -217 -581 -549 -699 -80 -28 -96 -30 -226 -31 -129 0 -143 2
-185 24 -25 14 -72 34 -105 45 -68 24 -68 23 -40 126 11 39 18 102 19 155 1
164 -58 292 -168 366 l-54 36 23 56 c84 208 329 398 576 446 83 16 221 12 304
-9z m2090 -10 c225 -72 425 -242 500 -427 l23 -56 -54 -36 c-110 -74 -169
-202 -168 -366 1 -53 8 -116 19 -155 28 -103 28 -102 -40 -126 -33 -11 -80
-31 -105 -45 -42 -22 -56 -24 -185 -24 -130 1 -146 3 -226 31 -220 78 -388
222 -479 409 -170 349 -22 710 331 805 100 27 281 22 384 -10z m-3025 -526
c80 -24 159 -106 190 -199 63 -186 6 -425 -137 -569 -78 -79 -165 -120 -252
-120 -101 0 -171 40 -247 140 -59 77 -70 293 -22 425 47 128 116 220 210 280
88 57 168 70 258 43z m3797 -20 c205 -100 326 -385 269 -628 -23 -97 -90 -180
-176 -219 -187 -85 -426 79 -506 348 -27 91 -24 231 6 320 30 89 110 175 186
199 66 21 154 13 221 -20z m-4364 -309 c57 -19 58 -20 53 -50 -3 -16 -9 -73
-12 -125 -16 -232 101 -416 277 -437 29 -3 49 -11 49 -18 0 -32 -75 -156 -126
-209 -100 -103 -222 -164 -368 -186 -181 -27 -378 36 -502 160 -292 291 -138
756 288 870 94 26 255 23 341 -5z m5051 5 c359 -92 544 -452 385 -751 -104
-195 -359 -314 -595 -279 -146 22 -268 83 -368 186 -51 53 -126 177 -126 209
0 7 20 15 49 18 176 21 293 205 277 437 -3 52 -9 109 -12 126 -6 30 -5 31 58
48 34 10 68 20 73 21 37 12 192 3 259 -15z m-4228 -375 c37 -14 100 -44 141
-68 65 -36 81 -52 123 -115 73 -112 112 -238 117 -387 10 -258 -79 -456 -242
-536 -60 -29 -71 -31 -142 -27 -100 6 -167 39 -246 121 -64 66 -136 200 -163
302 -25 97 -30 256 -10 355 21 104 28 117 65 125 74 16 202 126 255 217 11 21
24 38 28 38 4 0 37 -11 74 -25z m3170 -13 c53 -91 181 -201 255 -217 37 -8 44
-21 65 -125 20 -99 15 -258 -10 -355 -27 -102 -99 -236 -163 -302 -79 -82
-146 -115 -246 -121 -71 -4 -82 -2 -142 27 -162 80 -252 278 -242 536 3 104 9
134 38 220 20 56 55 131 79 169 37 56 57 75 115 109 65 38 197 96 220 97 6 0
20 -17 31 -38z m-2591 -369 c149 -124 443 -414 591 -583 106 -121 322 -387
331 -407 2 -6 -36 -68 -85 -138 -204 -291 -352 -573 -406 -774 l-22 -83 -97
145 c-240 361 -504 680 -789 955 -43 41 -78 78 -78 82 0 4 20 10 45 13 112 16
219 105 285 240 50 102 70 192 70 324 0 140 -31 278 -89 391 l-22 43 68 -50
c37 -27 126 -98 198 -158z m2154 165 c-58 -113 -89 -251 -89 -391 0 -132 20
-222 70 -324 66 -135 173 -224 285 -240 25 -3 45 -9 45 -13 0 -4 -35 -41 -77
-82 -286 -275 -550 -594 -790 -955 l-97 -145 -22 83 c-54 201 -202 483 -406
774 -49 70 -87 132 -85 138 9 20 225 286 331 407 140 160 439 456 576 571 100
84 270 217 278 219 1 0 -7 -19 -19 -42z m-3177 -523 l24 -81 -134 93 c-74 51
-139 93 -143 93 -21 0 -5 19 40 48 51 33 170 154 173 175 0 7 4 -46 9 -118 5
-90 14 -155 31 -210z m4103 207 c31 -29 70 -59 86 -68 27 -14 39 -34 20 -34
-4 0 -69 -42 -143 -93 l-134 -93 24 81 c18 59 26 114 29 207 l6 127 27 -37
c14 -20 53 -61 85 -90z m-2024 -1026 c218 -318 366 -613 400 -797 l12 -66 -82
-144 c-147 -257 -280 -541 -378 -808 -26 -72 -50 -131 -53 -131 -3 0 -27 59
-53 131 -98 267 -231 551 -378 808 l-82 144 12 66 c22 121 100 305 209 496
107 186 278 438 295 432 6 -2 51 -61 98 -131z"/>
<path d="M11385 11093 c14 -58 89 -233 137 -323 130 -241 260 -412 488 -641
232 -234 437 -395 708 -556 239 -143 491 -261 736 -344 l138 -47 -68 -15
c-210 -47 -408 -74 -584 -80 -62 -2 -75 -5 -78 -19 -3 -16 5 -18 65 -18 150 0
417 38 621 87 l112 27 113 -27 c203 -49 470 -87 620 -87 60 0 68 2 65 18 -3
14 -16 17 -78 19 -176 6 -374 33 -584 80 l-68 15 138 47 c412 141 803 356
1167 643 134 106 432 407 528 533 145 191 257 382 328 561 54 137 58 154 34
154 -14 0 -25 -19 -48 -87 -63 -187 -201 -425 -367 -636 -102 -130 -361 -387
-503 -501 -354 -282 -776 -511 -1205 -651 l-140 -45 -140 45 c-429 140 -851
369 -1205 651 -142 114 -401 371 -503 501 -166 211 -304 449 -367 636 -23 68
-34 87 -48 87 -16 0 -18 -5 -12 -27z"/>
</g>
</svg>
