<svg version="1.0" xmlns="http://www.w3.org/2000/svg"
 width="2732.000000pt" height="2048.000000pt" viewBox="0 0 2732.000000 2048.000000"
 preserveAspectRatio="xMidYMid meet">

<g transform="translate(0.000000,2048.000000) scale(0.100000,-0.100000)"
fill="#000000" stroke="none">
<path d="M11285 16654 c-11 -2 -45 -9 -75 -15 -166 -34 -320 -162 -410 -339
-139 -276 -100 -666 90 -905 l31 -39 -83 -17 c-119 -24 -198 -67 -289 -158
-83 -83 -124 -156 -154 -271 -21 -78 -16 -230 9 -299 9 -24 15 -45 14 -47 -5
-4 -95 22 -178 50 -237 83 -500 126 -806 133 -407 10 -656 -39 -959 -187 -290
-141 -514 -339 -698 -617 -75 -113 -141 -233 -169 -307 -112 -292 -160 -489
-188 -766 -14 -135 -13 -551 0 -655 48 -360 69 -479 126 -695 96 -368 227
-712 411 -1080 161 -323 285 -531 495 -832 154 -221 174 -242 254 -268 79 -27
109 -23 219 24 900 385 1717 1109 2199 1950 198 343 322 682 392 1066 25 135
26 518 2 645 -30 157 -66 266 -138 410 -109 219 -261 394 -458 528 -97 65
-283 154 -403 191 -210 66 -321 80 -599 80 -250 -1 -298 -5 -554 -53 -121 -23
-166 -46 -190 -95 -34 -72 -15 -146 46 -177 47 -24 82 -24 183 0 302 73 648
79 925 16 271 -61 465 -167 636 -348 336 -355 407 -919 194 -1555 -195 -585
-618 -1187 -1171 -1668 -199 -173 -480 -377 -664 -482 -218 -124 -466 -247
-524 -258 -23 -5 -33 5 -92 88 -488 691 -813 1418 -958 2143 -47 231 -62 379
-68 637 -6 268 3 385 47 608 79 395 226 702 449 933 301 314 693 467 1196 467
446 0 838 -100 1345 -342 796 -381 1609 -1115 2180 -1968 246 -368 394 -640
551 -1014 103 -244 127 -276 209 -276 82 0 106 32 209 276 157 374 305 646
551 1014 571 853 1384 1587 2180 1968 507 242 899 342 1345 342 566 0 995
-195 1307 -595 193 -248 334 -644 379 -1063 15 -144 7 -543 -15 -712 -45 -342
-146 -730 -284 -1085 -179 -462 -417 -902 -721 -1333 -59 -83 -69 -93 -92 -88
-58 11 -306 134 -524 258 -184 105 -465 309 -664 482 -794 690 -1291 1597
-1291 2354 0 356 106 650 314 869 171 181 365 287 636 348 277 63 623 57 925
-16 101 -24 136 -24 183 0 61 31 80 105 46 177 -24 49 -69 72 -190 95 -256 48
-304 52 -554 53 -278 0 -389 -14 -599 -80 -120 -37 -306 -126 -403 -191 -311
-211 -521 -541 -596 -938 -13 -69 -17 -144 -16 -320 0 -248 7 -304 65 -545
187 -778 758 -1593 1547 -2209 285 -222 660 -443 997 -587 110 -47 140 -51
219 -24 80 26 100 47 254 268 382 547 652 1086 842 1687 90 283 133 493 190
920 13 104 14 520 0 655 -28 277 -76 474 -188 766 -44 115 -180 339 -284 467
-285 351 -723 582 -1207 638 -154 17 -531 6 -695 -20 -151 -25 -340 -70 -446
-107 -83 -28 -173 -54 -178 -50 -1 2 5 23 14 47 25 69 30 221 9 299 -30 115
-71 188 -154 271 -91 91 -170 134 -289 158 l-83 17 31 39 c190 239 229 629 90
905 -115 228 -313 355 -550 354 -166 -1 -299 -61 -432 -196 -75 -75 -95 -103
-137 -191 -47 -97 -81 -200 -81 -246 0 -12 -2 -21 -5 -21 -3 0 -36 22 -73 49
-178 129 -400 201 -617 201 -448 -2 -757 -303 -713 -695 20 -184 91 -325 244
-485 111 -116 313 -250 417 -275 15 -4 27 -10 27 -14 0 -3 -37 -29 -83 -58
-256 -162 -618 -520 -820 -812 -16 -23 -32 -41 -37 -41 -5 0 -21 18 -37 41
-202 292 -564 650 -820 812 -46 29 -83 55 -83 58 0 4 12 10 28 14 103 25 305
159 416 275 153 160 224 301 244 485 56 497 -451 820 -1018 649 -105 -32 -224
-91 -312 -155 -37 -27 -70 -49 -73 -49 -3 0 -5 9 -5 21 0 46 -34 149 -81 246
-42 88 -62 116 -137 191 -92 93 -174 144 -280 176 -56 16 -183 28 -217 20z
m198 -297 c113 -59 208 -198 243 -353 16 -74 16 -112 0 -289 -3 -31 -4 -32
-88 -70 -82 -37 -159 -111 -254 -243 -1 -2 -31 4 -66 13 -193 49 -326 255
-329 510 -3 233 106 411 282 459 72 20 140 11 212 -27z m4599 17 c57 -19 130
-81 173 -149 98 -153 103 -401 12 -580 -60 -120 -156 -203 -265 -230 -35 -9
-65 -15 -66 -13 -95 132 -172 206 -254 243 -84 38 -85 39 -88 70 -16 177 -16
215 0 289 34 152 129 292 238 351 87 48 148 52 250 19z m-3250 -395 c185 -39
308 -182 308 -358 0 -253 -241 -514 -557 -603 -114 -32 -281 -32 -380 1 l-72
23 7 32 c4 17 7 90 7 161 0 154 -20 227 -86 313 l-40 54 31 47 c62 98 199 210
329 269 138 63 323 88 453 61z m1959 -10 c197 -50 388 -177 479 -320 l31 -47
-40 -54 c-66 -86 -86 -159 -86 -313 0 -71 3 -144 7 -161 l7 -32 -72 -23 c-99
-33 -266 -33 -380 -1 -213 60 -414 213 -496 379 -47 94 -61 145 -61 224 0 172
116 311 295 355 82 20 220 17 316 -7z m-2948 -577 c106 -117 19 -488 -143
-607 -113 -83 -172 -42 -186 127 -14 171 75 379 199 469 47 34 105 39 130 11z
m3753 -3 c124 -76 224 -303 210 -477 -14 -169 -73 -210 -186 -127 -161 118
-249 490 -144 606 23 25 77 25 120 -2z m-4486 -324 c25 -9 66 -24 92 -33 l48
-17 0 -81 c0 -45 4 -106 10 -135 13 -71 70 -186 115 -232 41 -42 40 -53 -5
-116 -63 -86 -210 -136 -333 -113 -178 33 -327 171 -373 346 -18 66 -17 98 1
171 40 154 162 241 325 231 41 -2 95 -12 120 -21z m5381 -7 c94 -43 147 -116
171 -233 15 -76 -1 -155 -49 -248 -63 -119 -192 -213 -330 -239 -123 -23 -270
27 -333 113 -45 63 -46 74 -5 116 45 46 102 161 115 232 6 29 10 91 10 137 0
66 3 84 14 84 8 0 36 10 63 21 124 55 248 61 344 17z m-4436 -278 c4 -6 46
-37 94 -69 139 -94 239 -220 304 -383 57 -144 56 -253 -3 -384 -33 -73 -76
-109 -149 -125 -72 -15 -132 -4 -226 41 -125 60 -226 156 -305 289 -71 119
-90 196 -73 295 5 33 12 41 49 58 50 22 127 78 167 122 42 45 117 147 117 157
0 12 17 11 25 -1z m3235 1 c0 -10 75 -112 117 -157 40 -44 117 -100 167 -122
37 -17 44 -25 49 -58 17 -99 -2 -176 -73 -295 -79 -133 -180 -229 -305 -289
-94 -45 -154 -56 -226 -41 -73 16 -116 52 -149 125 -59 131 -60 240 -3 384 65
163 165 289 304 383 48 32 90 63 94 69 8 12 25 13 25 1z m-2424 -462 c207
-193 501 -511 593 -643 l41 -59 -32 -56 c-17 -31 -48 -85 -69 -121 -112 -195
-271 -557 -350 -795 -22 -66 -43 -123 -47 -127 -4 -4 -44 42 -89 102 -173 227
-345 423 -577 656 -133 132 -266 263 -296 289 -30 27 -46 45 -35 40 11 -5 61
-19 110 -32 74 -20 104 -24 172 -19 334 24 542 332 467 693 -14 70 -41 162
-60 208 -11 26 41 -15 172 -136z m1739 76 c-55 -164 -66 -285 -40 -421 46
-240 228 -403 468 -420 68 -5 98 -1 172 19 50 13 99 27 110 32 11 5 -5 -13
-35 -40 -30 -26 -163 -157 -296 -289 -232 -233 -404 -429 -577 -656 -45 -60
-85 -106 -89 -102 -4 4 -25 61 -47 127 -79 238 -238 600 -350 795 -21 36 -52
90 -69 121 l-32 56 41 59 c106 152 442 510 658 701 58 51 106 92 107 90 1 -1
-8 -33 -21 -72z m-3115 -290 c16 -35 47 -91 70 -124 l40 -60 -130 87 c-71 48
-129 89 -130 92 0 4 93 58 118 69 2 0 16 -28 32 -64z m4489 -5 c0 -3 -58 -44
-129 -92 l-130 -87 40 60 c23 33 54 88 70 123 l28 64 61 -31 c34 -18 61 -34
60 -37z m-2225 -929 c102 -200 138 -283 217 -496 52 -139 131 -380 145 -440 3
-13 -15 -52 -52 -109 -31 -50 -133 -235 -227 -413 -93 -178 -173 -323 -177
-323 -4 0 -84 145 -177 323 -94 178 -196 363 -227 413 -37 57 -55 96 -52 109
26 113 167 513 240 684 51 117 206 421 216 421 4 0 47 -76 94 -169z"/>
<path d="M11432 11230 c-80 -36 -99 -106 -62 -231 59 -197 156 -384 327 -629
37 -54 245 -289 309 -350 325 -310 632 -528 1038 -736 98 -50 174 -94 169 -97
-27 -17 -327 -56 -469 -63 -158 -6 -329 5 -421 28 -57 14 -110 2 -145 -32 -23
-24 -28 -37 -28 -80 0 -108 47 -143 228 -166 155 -21 441 -20 607 1 199 25
448 77 623 132 48 15 56 15 105 0 174 -55 423 -107 622 -132 166 -21 452 -22
607 -1 181 23 228 58 228 166 0 43 -5 56 -28 80 -35 34 -88 46 -145 32 -92
-23 -263 -34 -421 -28 -142 7 -442 46 -469 63 -5 3 71 47 169 97 406 208 713
426 1038 736 64 61 272 296 309 350 135 194 203 312 266 463 82 198 97 285 61
345 -25 41 -91 72 -138 65 -56 -9 -80 -46 -130 -198 -198 -597 -868 -1226
-1707 -1605 -170 -76 -284 -120 -315 -120 -31 0 -145 44 -315 120 -833 376
-1514 1014 -1704 1598 -23 70 -47 137 -53 149 -26 52 -94 71 -156 43z"/>
</g>
</svg>
